<svg width="25" height="24" viewBox="0 0 25 24" fill="none" xmlns="http://www.w3.org/2000/svg">
<g clip-path="url(#clip0_1_5466)">
<path d="M19.5 14V6C19.5 4.9 18.6 4 17.5 4H3.5C2.4 4 1.5 4.9 1.5 6V14C1.5 15.1 2.4 16 3.5 16H17.5C18.6 16 19.5 15.1 19.5 14ZM17.5 14H3.5V6H17.5V14ZM10.5 7C8.84 7 7.5 8.34 7.5 10C7.5 11.66 8.84 13 10.5 13C12.16 13 13.5 11.66 13.5 10C13.5 8.34 12.16 7 10.5 7ZM23.5 7V18C23.5 19.1 22.6 20 21.5 20H4.5C4.5 19 4.5 19.1 4.5 18H21.5V7C22.6 7 22.5 7 23.5 7Z" fill="#3660B3"/>
</g>
<defs>
<clipPath id="clip0_1_5466">
<rect width="24" height="24" fill="white" transform="translate(0.5)"/>
</clipPath>
</defs>
</svg>
